<?xml version="1.0" encoding="UTF-8" standalone="no"?>
<svg
   xmlns:dc="http://purl.org/dc/elements/1.1/"
   xmlns:cc="http://creativecommons.org/ns#"
   xmlns:rdf="http://www.w3.org/1999/02/22-rdf-syntax-ns#"
   xmlns:svg="http://www.w3.org/2000/svg"
   xmlns="http://www.w3.org/2000/svg"
   xmlns:sodipodi="http://sodipodi.sourceforge.net/DTD/sodipodi-0.dtd"
   xmlns:inkscape="http://www.inkscape.org/namespaces/inkscape"
   id="svg10"
   version="1.1"
   height="128"
   width="128"
   sodipodi:docname="excalidraw.svg"
   inkscape:version="0.92.3 (2405546, 2018-03-11)">
  <sodipodi:namedview
     pagecolor="#ffffff"
     bordercolor="#666666"
     borderopacity="1"
     objecttolerance="10"
     gridtolerance="10"
     guidetolerance="10"
     inkscape:pageopacity="0"
     inkscape:pageshadow="2"
     inkscape:window-width="3840"
     inkscape:window-height="2019"
     id="namedview11"
     showgrid="false"
     inkscape:pagecheckerboard="true"
     inkscape:zoom="1.84375"
     inkscape:cx="171.8863"
     inkscape:cy="131.54068"
     inkscape:window-x="-13"
     inkscape:window-y="-13"
     inkscape:window-maximized="1"
     inkscape:current-layer="svg10" />
  <metadata
     id="metadata16">
    <rdf:RDF>
      <cc:Work
         rdf:about="">
        <dc:format>image/svg+xml</dc:format>
        <dc:type
           rdf:resource="http://purl.org/dc/dcmitype/StillImage" />
        <dc:title></dc:title>
      </cc:Work>
    </rdf:RDF>
  </metadata>
  <defs
     id="defs14" />
  <g
     id="excalidraw"
     inkscape:label="excalidraw">
    <path
       id="path4"
       d="M -1.51035e-4,0 H 127.99985 V 128 H -1.51035e-4 Z"
       style="clip-rule:evenodd;fill:none;fill-opacity:0.00392157;fill-rule:evenodd;stroke-width:1.05785143;stroke-linejoin:round;stroke-miterlimit:2"
       inkscape:connector-curvature="0" />
    <g
       transform="matrix(4,0,0,4,4.34205e-4,1.8236301e-5)"
       id="g873">
      <rect
         style="fill:#ffffff;stroke-width:0.03"
         y="1.0000449"
         x="0.99984896"
         id="rect2"
         ry="6"
         rx="6"
         height="30"
         width="30" />
      <path
         d="m 27.932421,23.77272 a 0.16418645,0.16418645 0 0 0 -0.158504,-0.0359 C 26.520836,21.88561 24.926822,20.1301 23.383649,18.4344 l -0.254205,-0.27813 c 0,-0.0329 -0.01495,-0.0628 -0.03589,-0.0897 a 0.16388739,0.16388739 0 0 0 -0.101682,-0.0598 l -0.05084,-0.0538 -0.03589,-0.0269 c -0.04486,-0.0957 -0.158504,-0.16747 -0.284111,-0.10467 -0.472522,0.24224 -0.897194,0.58916 -1.315884,0.90916 -0.559251,0.42766 -1.106539,0.87327 -1.62093,1.35177 -0.209345,0.19439 -0.4157,0.39776 -0.589157,0.62505 -0.08374,0.11065 -0.02093,0.21532 0.08075,0.26018 -0.364859,0.35888 -0.732708,0.73271 -1.100558,1.1185 -0.0329,0.0359 -0.05084,0.0837 -0.04785,0.13159 0.003,0.0479 0.02692,0.0927 0.06579,0.12262 l 0.64598,0.49345 c 0,0 0.003,0.009 0.009,0.012 0.924109,0.91214 2.545039,2.17719 4.26167,3.517 0.254205,0.20037 0.5114,0.40074 0.768596,0.60112 0.116635,0.14056 0.227289,0.28112 0.334952,0.41869 0.05682,0.0748 0.164486,0.0897 0.239252,0.0329 0.03888,0.0299 0.07776,0.0628 0.116635,0.0927 a 0.17046681,0.17046681 0 0 0 0.239252,-0.0299 c 0.02093,-0.0269 0.02991,-0.0598 0.0329,-0.0927 0.01196,0 0.02093,0.009 0.02991,0.009 0.04486,0 0.09271,-0.0179 0.125607,-0.0538 l 3.044478,-3.3256 a 0.16747616,0.16747616 0 0 0 -0.01196,-0.23925 z m -8.741658,-1.15139 c 0.02093,0.0269 0.04187,0.0508 0.0628,0.0748 0.346915,0.29309 0.717755,0.61009 1.094576,0.93308 l -1.531211,-1.16934 c 0,0 -0.0957,-0.0658 -0.155513,-0.10766 -0.0329,-0.0239 -0.0628,-0.0479 -0.09271,-0.0718 l -0.113645,-0.0957 c 0,0 0.02094,-0.0209 0.02991,-0.0329 l 0.104672,-0.10467 c 0.514391,-0.52037 1.396632,-1.38766 1.85121,-1.81233 -0.481494,0.48449 -1.456444,1.90504 -1.247099,2.38654 z m 5.242602,4.13008 -1.262052,-0.96299 c -0.493457,-0.5114 -1.025792,-1.01682 -1.567099,-1.5043 0.681868,0.52636 1.265044,0.97196 1.351772,1.04972 0.660933,0.58916 0.631027,0.4815 1.085605,0.87028 l 0.547288,0.39776 c -0.05383,0.0478 -0.107663,0.0987 -0.158504,0.14654 z m 0.317009,0.24224 -0.02393,-0.0179 c 0.04785,-0.0389 0.09869,-0.0748 0.146541,-0.11365 l -0.119626,0.13159 z M 4.7339815,7.46473 c 0.041869,0.21533 0.080747,0.42767 0.1196258,0.63103 0.2063545,1.10654 0.3977559,2.10242 0.7626147,2.85906 l 0.143551,0.5742 c 0.056822,0.21832 0.1375697,0.49047 0.2123358,0.54729 0.8523341,0.75364 2.1592463,1.87812 3.5558779,2.93681 0.062804,0.0479 0.1495322,0.0449 0.2093452,-0.003 0.00299,0.006 0.00897,0.009 0.011963,0.012 0.032897,0.0299 0.071775,0.0449 0.1136446,0.0449 0.04785,0 0.09271,-0.0179 0.1256071,-0.0568 1.7884064,-1.98878 3.1192444,-3.62466 4.0672784,-4.99438 0.05981,-0.0748 0.08972,-0.16149 0.08673,-0.25121 0.05981,-0.0718 0.122617,-0.14355 0.17944,-0.20336 a 0.16687804,0.16687804 0 0 0 -0.02991,-0.2572 0.17285933,0.17285933 0 0 0 -0.05084,-0.10766 C 13.825545,8.79566 13.517508,8.50557 13.206482,8.21548 12.656203,7.70108 12.08798,7.16875 10.88275,5.9695 10.87675,5.9635 10.8678,5.9575 10.86182,5.9516 A 0.16598084,0.16598084 0 0 0 10.79603,5.9097 C 10.46406,5.79296 9.7821925,5.67633 8.9238772,5.52679 7.6618247,5.31147 5.9332314,5.0124 4.3780956,4.54885 H 4.366132 v -0.003 c 0,0 -0.00598,0 -0.00897,0.006 h -0.00299 l 0.011963,-0.006 c 0,0 -0.09271,0.003 -0.1106539,0.012 -0.023925,0.012 -0.041869,0.0269 -0.056822,0.0448 -0.014953,0.018 -0.026916,0.0359 -0.1405604,0.0598 -0.1136445,0.0239 0.023925,0 0.032897,0 h -0.032897 v 0.009 c 0.020935,0.10168 0.014953,0.17346 0.04785,0.29009 -0.00598,0.0299 0.062804,0.30505 0.071776,0.33196 L 4.7250129,7.46471 Z M 13.99003,9.42062 c 0,0 -0.009,0.012 -0.01196,0.0149 L 13.786668,9.22318 c 0.06579,0.0628 0.131589,0.12561 0.203364,0.19739 z m -2.120368,2.80821 c 0,0 -0.02093,0.0239 -0.02991,0.0359 l -0.006,-0.006 c 0.01196,-0.009 0.02393,-0.0209 0.03888,-0.0299 z M 9.7552757,14.76191 Z M 10.658451,6.21763 c 0.104672,0.10468 0.520372,0.49346 0.616073,0.58916 C 10.84088,6.60941 9.761257,6.10698 9.2588285,5.94548 9.7522851,6.03218 10.434152,6.14287 10.658451,6.21763 Z M 4.9223921,5.38922 C 5.1736064,5.81988 5.370989,7.33015 5.5683716,8.79856 5.4577177,8.32604 5.3620171,7.86548 5.2722977,7.42286 5.1167841,6.65726 4.9732331,5.9724 4.7728598,5.3653 c 0.041869,0.003 0.09271,0.009 0.1465417,0.0149 0,0.003 0,0.006 0.00598,0.009 z M 4.8356631,5.02736 c -0.068785,-0.006 -0.1315884,-0.012 -0.18542,-0.015 -0.00598,-0.012 -0.00897,-0.0239 -0.011963,-0.0359 l 0.1973826,0.0538 z M 4.17174,5.16194 v -0.006 z m 23.488532,-0.3529 c 0.01196,-0.0688 -0.328971,-0.37084 -0.221308,-0.37682 0.254205,-0.012 0.257196,-0.40374 0,-0.39178 -0.337943,0.018 -0.678876,0.0957 -1.007847,0.15851 -0.592148,0.11065 -1.181305,0.23327 -1.770463,0.36187 -1.312893,0.28112 -2.622796,0.57719 -3.917746,0.93009 -0.406727,0.11065 -0.855324,0.20934 -1.229155,0.40672 -0.125607,0.0658 -0.119626,0.20038 -0.05084,0.28412 -0.02692,0.0149 -0.05383,0.0239 -0.08374,0.0269 -0.110654,0.0209 -0.221308,0.0389 -0.331962,0.0568 a 0.16927055,0.16927055 0 0 0 -0.116635,0.25719 c -0.69383,0.9271 -1.48336,1.92598 -2.338685,2.9757 -0.840371,0.95999 -1.71364,1.98279 -2.607843,3.03251 -2.814198,3.30765 -6.0052169,7.05792 -9.5401602,10.3596 -0.068785,0.0628 -0.071776,0.17046 -0.00897,0.23925 0.014953,0.0179 0.035888,0.0299 0.056822,0.0389 -0.04785,0.0449 -0.095701,0.0897 -0.143551,0.13159 -0.029906,0.0269 -0.041869,0.0598 -0.04785,0.0957 -0.023925,0.0239 -0.04785,0.0508 -0.068785,0.0748 -0.062804,0.0688 -0.059813,0.17645 0.00897,0.23925 0.068785,0.0628 0.1764481,0.0598 0.2392517,-0.009 0.011963,-0.012 0.023925,-0.0269 0.035888,-0.0389 a 0.25121425,0.25121425 0 0 1 0.3648588,0 c 0.2063546,0.22131 0.4007465,0.43066 0.5831759,0.62505 L 5.0509891,23.94316 a 0.17046681,0.17046681 0 0 0 -0.2392517,0.0209 c -0.059813,0.0718 -0.050841,0.17944 0.020935,0.23925 l 4.432137,3.71737 c 0.032897,0.0269 0.071775,0.0389 0.1106539,0.0389 0.04486,0 0.086729,-0.0179 0.1196259,-0.0508 l 0.1076632,-0.10766 a 0.16747616,0.16747616 0 0 0 0.1884107,-0.0359 C 15.799371,21.7301 20.638236,17.16936 26.179902,13.09311 c 0.05084,-0.0359 0.07477,-0.0957 0.06879,-0.15252 a 0.17046681,0.17046681 0 0 0 0.143551,-0.11664 c 1.022801,-3.12821 1.220184,-5.89755 1.279997,-7.25829 0,-0.009 0.003,-0.015 0.006,-0.0209 0.006,-0.0149 0.009,-0.0299 0.01196,-0.0419 0.009,-0.0329 0.01495,-0.0568 0.01495,-0.0568 0.07776,-0.23327 0.05084,-0.45757 -0.04486,-0.64299 z m -10.7424,4.89569 c 0.269159,-0.30804 0.535326,-0.6101 0.798503,-0.90318 -1.722612,2.26691 -4.575688,5.75999 -8.6160507,9.911 2.7513937,-3.04448 5.5237227,-6.19961 7.8175477,-9.00782 z m -9.7345516,15.7936 -0.00897,-0.009 c 0.032897,0.006 0.056822,0.012 0.059813,0.012 a 0.14056035,0.14056035 0 0 0 -0.050841,0 z m 2.0635456,1.91999 -0.014953,-0.012 0.00897,-0.009 c 0.00598,0 0.00897,0.006 0.011962,0.006 0,0.006 -0.00598,0.009 -0.00897,0.0149 z m 2.50018,-2.15625 0.412709,-0.43066 c 0.003,0.003 0.006,0.009 0.009,0.015 -0.14056,0.13757 -0.281121,0.27813 -0.424672,0.4157 z m 0.669904,-0.66094 c 0.07776,-0.0897 0.167477,-0.19439 0.260187,-0.30504 0.003,-0.003 0.006,-0.009 0.01196,-0.012 0.983923,-1.01382 1.997752,-2.03962 3.044478,-3.06541 0.006,-0.006 0.01495,-0.012 0.02093,-0.0179 0.257196,-0.19738 0.544298,-0.4157 0.813456,-0.62206 -1.351772,1.29196 -2.724478,2.62579 -4.151017,4.02541 z M 18.891699,7.8894 c -0.55626,0.72374 -1.166352,1.6628 -1.683734,2.41346 -1.632893,2.3656 -6.890448,8.15848 -7.007083,8.26913 -0.8104651,0.78355 -3.2538227,3.12822 -4.8119491,4.59662 -0.041869,0.0389 -0.074766,0.0718 -0.101682,0.10468 a 0.23745728,0.23745728 0 0 1 0.00897,-0.33795 C 12.719004,15.93723 17.222916,10.10846 19.053192,7.56941 c -0.03888,0.0987 -0.07178,0.20635 -0.164486,0.32598 z m 4.937556,2.12336 -0.003,0.006 c 0,-0.006 -0.006,-0.0209 0.003,-0.006 z m -0.272149,-1.5342 z m -1.76149,2.82616 C 21.11973,10.91295 20.802721,10.32678 20.985151,9.73463 l 0.05682,-0.19738 c 0.02393,-0.0568 0.05084,-0.11364 0.08374,-0.17047 0.176448,-0.29308 0.445606,-0.55327 0.753643,-0.70579 0.01495,-0.006 0.02991,-0.009 0.04486,-0.012 a 0.23775634,0.23775634 0 0 1 -0.01196,-0.1286 c 0.01495,-0.0927 0.07477,-0.17346 0.197383,-0.17346 0.200373,0 0.822427,0.18542 1.058688,0.38879 0.07178,0.0568 0.14056,0.11962 0.203364,0.18841 0.08972,0.10467 0.221308,0.27514 0.287102,0.39775 0.03888,0.018 0.06878,0.18542 0.113645,0.27215 0.04187,0.13757 0.05981,0.27813 0.05383,0.41869 0,0.006 0,0.006 0.003,0.009 -0.009,0.0209 0,0.11065 -0.01196,0.11962 -0.02991,0.21533 -0.107663,0.42766 -0.224298,0.61308 -0.01196,0.015 -0.02094,0.0329 -0.0329,0.0478 0,0.003 -0.006,0.006 -0.009,0.012 -0.08972,0.12859 -0.194392,0.24822 -0.32299,0.33794 -0.376821,0.26617 -0.816446,0.34691 -1.256071,0.23626 a 1.8930788,1.8930788 0 0 1 -0.170467,-0.0748 z m 4.86578,-0.48747 c -0.146541,0.61308 -0.32598,1.25308 -0.538316,1.90803 -0.009,0.0239 -0.009,0.0479 -0.009,0.0688 -0.02991,0.003 -0.05682,0.015 -0.08075,0.0329 -1.327847,0.97495 -2.610834,1.97981 -3.881858,3.02354 1.097567,-0.99289 2.210087,-1.9798 3.358495,-2.97569 a 1.9167049,1.9167049 0 0 0 0.631026,-1.1185 l 0.167476,-1.00785 0.009,-0.0299 c 0.07477,-0.21234 0.400747,-0.11963 0.349906,0.0987 z"
         style="clip-rule:evenodd;fill:#6965db;fill-rule:nonzero;stroke-width:0.29906458;stroke-linejoin:round;stroke-miterlimit:2"
         id="path6"
         inkscape:connector-curvature="0" />
    </g>
    <path
       id="path4-7"
       d="m 119.99989,3.783715e-5 h 7.99996 V 8 h -7.99996 z"
       style="clip-rule:evenodd;fill:#00ffff;fill-opacity:0.00392157;fill-rule:evenodd;stroke-width:0.06611541;stroke-linejoin:round;stroke-miterlimit:2"
       inkscape:connector-curvature="0" />
  </g>
  <g
     id="excalidraw-large"
     inkscape:label="excalidraw-large"
     transform="matrix(2,0,0,2,-127.99985,-128.00004)">
    <path
       id="path4-9"
       d="m 127.99985,3.783715e-5 h 128 V 128.00004 h -128 z"
       style="clip-rule:evenodd;fill:none;fill-opacity:0.00392157;fill-rule:evenodd;stroke-width:1.05785143;stroke-linejoin:round;stroke-miterlimit:2"
       inkscape:connector-curvature="0" />
    <path
       inkscape:connector-curvature="0"
       id="path6-6"
       style="clip-rule:evenodd;fill:#6965db;fill-rule:nonzero;stroke-width:1.19625831;stroke-linejoin:round;stroke-miterlimit:2"
       d="m 239.73011,95.090936 a 0.6567458,0.6567458 0 0 0 -0.63401,-0.1436 c -5.01233,-7.40484 -11.38838,-14.42688 -17.56107,-21.20968 l -1.01682,-1.11252 c 0,-0.1316 -0.0598,-0.2512 -0.14356,-0.3588 a 0.65554956,0.65554956 0 0 0 -0.40673,-0.2392 l -0.20336,-0.2152 -0.14356,-0.1076 c -0.17944,-0.3828 -0.63402,-0.66988 -1.13645,-0.41868 -1.89008,0.96896 -3.58877,2.35664 -5.26353,3.63664 -2.23701,1.71064 -4.42616,3.49308 -6.48372,5.40708 -0.83738,0.77756 -1.6628,1.59104 -2.35663,2.5002 -0.33496,0.4426 -0.0837,0.86128 0.323,1.04072 -1.45944,1.43552 -2.93083,2.93084 -4.40223,4.474 -0.1316,0.1436 -0.20336,0.3348 -0.1914,0.52636 0.012,0.1916 0.10768,0.3708 0.26316,0.49048 l 2.58392,1.9738 c 0,0 0.012,0.036 0.036,0.048 3.69643,3.64856 10.18015,8.708764 17.04668,14.068004 1.01682,0.80148 2.0456,1.60296 3.07438,2.40448 0.46654,0.56224 0.90916,1.12448 1.33981,1.67476 0.22728,0.2992 0.65794,0.3588 0.95701,0.1316 0.15552,0.1196 0.31104,0.2512 0.46654,0.3708 a 0.68186724,0.68186724 0 0 0 0.95701,-0.1196 c 0.0837,-0.1076 0.11964,-0.2392 0.1316,-0.3708 0.0478,0 0.0837,0.036 0.11964,0.036 0.17944,0 0.37084,-0.0716 0.50242,-0.2152 l 12.17792,-13.302404 a 0.66990464,0.66990464 0 0 0 -0.0478,-0.957 z m -34.96663,-4.60556 c 0.0837,0.1076 0.16748,0.2032 0.2512,0.2992 1.38766,1.17236 2.87102,2.44036 4.37831,3.73232 l -6.12485,-4.67736 c 0,0 -0.3828,-0.2632 -0.62205,-0.43064 -0.1316,-0.0956 -0.2512,-0.1916 -0.37084,-0.2872 l -0.45458,-0.3828 c 0,0 0.0838,-0.0836 0.11964,-0.1316 l 0.41869,-0.41868 c 2.05756,-2.08148 5.58653,-5.55064 7.40484,-7.24932 -1.92598,1.93796 -5.82578,7.62016 -4.9884,9.54616 z m 20.97041,16.520324 -5.04821,-3.85196 c -1.97383,-2.0456 -4.10317,-4.067284 -6.26839,-6.017204 2.72747,2.10544 5.06017,3.887844 5.40708,4.198884 2.64374,2.35664 2.52411,1.926 4.34242,3.48112 l 2.18916,1.59104 c -0.21532,0.1912 -0.43066,0.3948 -0.63402,0.58616 z m 1.26804,0.96896 -0.0957,-0.0716 c 0.1914,-0.1556 0.39476,-0.2992 0.58616,-0.4546 l -0.4785,0.52636 z M 146.93636,29.858976 c 0.16747,0.86132 0.32298,1.71068 0.4785,2.52412 0.82542,4.42616 1.59102,8.40968 3.05046,11.43624 l 0.5742,2.2968 c 0.22729,0.87328 0.55028,1.96188 0.84935,2.18916 3.40933,3.01456 8.63698,7.51248 14.22351,11.74724 0.25121,0.1916 0.59813,0.1796 0.83738,-0.012 0.012,0.024 0.0359,0.036 0.0479,0.048 0.13159,0.1196 0.2871,0.1796 0.45458,0.1796 0.1914,0 0.37084,-0.0716 0.50243,-0.2272 7.15362,-7.95512 12.47697,-14.49864 16.26911,-19.97752 0.23924,-0.2992 0.35888,-0.64596 0.34692,-1.00484 0.23924,-0.2872 0.49047,-0.5742 0.71776,-0.81344 a 0.66751216,0.66751216 0 0 0 -0.11964,-1.0288 0.69143732,0.69143732 0 0 0 -0.20336,-0.43064 c -1.6628,-1.603 -2.89495,-2.76336 -4.13905,-3.92372 -2.20112,-2.0576 -4.47401,-4.18692 -9.29493,-8.98392 -0.024,-0.024 -0.0598,-0.048 -0.0837,-0.0716 a 0.66392336,0.66392336 0 0 0 -0.26316,-0.1676 c -1.32788,-0.46696 -4.05535,-0.93348 -7.48861,-1.53164 -5.04821,-0.86128 -11.96258,-2.05756 -18.18313,-3.91176 h -0.0479 v -0.012 c 0,0 -0.0239,0 -0.0359,0.024 h -0.012 l 0.0478,-0.024 c 0,0 -0.37084,0.012 -0.44262,0.048 -0.0957,0.048 -0.16747,0.1076 -0.22728,0.1792 -0.0598,0.072 -0.10767,0.1436 -0.56225,0.2392 -0.45457,0.0956 0.0957,0 0.13159,0 h -0.13159 v 0.036 c 0.0837,0.40672 0.0598,0.69384 0.1914,1.16036 -0.0239,0.1196 0.25122,1.2202 0.28711,1.32784 l 2.18915,8.68484 z m 37.02419,7.82356 c 0,0 -0.036,0.048 -0.0478,0.0596 l -0.76561,-0.84936 c 0.26316,0.2512 0.52636,0.50244 0.81346,0.78956 z m -8.48147,11.23284 c 0,0 -0.0837,0.0956 -0.11964,0.1436 l -0.024,-0.024 c 0.0478,-0.036 0.0957,-0.0836 0.15552,-0.1196 z m -8.45755,10.13232 z m 3.6127,-34.17712 c 0.41869,0.41872 2.08149,1.97384 2.4643,2.35664 -1.73458,-0.78952 -6.05307,-2.79924 -8.06279,-3.44524 1.97383,0.3468 4.7013,0.78956 5.59849,1.0886 z M 147.69,21.556936 c 1.00486,1.72264 1.79439,7.76372 2.58392,13.63736 -0.44262,-1.89008 -0.82542,-3.73232 -1.1843,-5.5028 -0.62205,-3.0624 -1.19626,-5.80184 -1.99775,-8.23024 0.16748,0.012 0.37084,0.036 0.58617,0.0596 0,0.012 0,0.024 0.0239,0.036 z m -0.34692,-1.44744 c -0.27514,-0.024 -0.52635,-0.048 -0.74168,-0.06 -0.0239,-0.048 -0.0359,-0.0956 -0.0479,-0.1436 l 0.78953,0.2152 z m -2.65569,0.53832 v -0.024 z m 93.95413,-1.4116 c 0.0478,-0.2752 -1.31589,-1.48336 -0.88523,-1.50728 1.01682,-0.048 1.02878,-1.61496 0,-1.56712 -1.35178,0.072 -2.71551,0.3828 -4.03139,0.63404 -2.36859,0.4426 -4.72522,0.93308 -7.08185,1.44748 -5.25158,1.12448 -10.49119,2.30876 -15.67099,3.72036 -1.62691,0.4426 -3.42129,0.83736 -4.91662,1.62688 -0.50243,0.2632 -0.4785,0.80152 -0.20336,1.13648 -0.10768,0.0596 -0.21532,0.0956 -0.33496,0.1076 -0.44261,0.0836 -0.88523,0.1556 -1.32785,0.2272 a 0.6770822,0.6770822 0 0 0 -0.46654,1.02876 c -2.77532,3.7084 -5.93344,7.70392 -9.35474,11.9028 -3.36148,3.83996 -6.85456,7.93116 -10.43137,12.13004 -11.25679,13.2306 -24.02087,28.23168 -38.16064,41.4384 -0.27514,0.2512 -0.2871,0.68184 -0.0359,0.957 0.0598,0.0716 0.14355,0.1196 0.22729,0.1556 -0.1914,0.1796 -0.3828,0.3588 -0.5742,0.52636 -0.11963,0.1076 -0.16748,0.2392 -0.1914,0.3828 -0.0957,0.0956 -0.1914,0.2032 -0.27514,0.2992 -0.25122,0.2752 -0.23926,0.7058 0.0359,0.957 0.27514,0.2512 0.70579,0.2392 0.957,-0.036 0.0478,-0.048 0.0957,-0.1076 0.14355,-0.1556 a 1.004857,1.004857 0 0 1 1.45944,0 c 0.82542,0.88524 1.60299,1.72264 2.3327,2.5002 l -1.65083,-1.37572 a 0.68186724,0.68186724 0 0 0 -0.95701,0.0836 c -0.23925,0.2872 -0.20336,0.71776 0.0837,0.957 l 17.72855,14.869484 c 0.13159,0.1076 0.2871,0.1556 0.44261,0.1556 0.17944,0 0.34692,-0.0716 0.47851,-0.2032 l 0.43065,-0.43064 a 0.66990464,0.66990464 0 0 0 0.75364,-0.1436 C 191.19787,86.920456 210.55333,68.677496 232.72,52.372496 c 0.20336,-0.1436 0.29908,-0.3828 0.27516,-0.61008 a 0.68186724,0.68186724 0 0 0 0.5742,-0.46656 c 4.09121,-12.51284 4.88074,-23.5902 5.11999,-29.03316 0,-0.036 0.012,-0.06 0.024,-0.0836 0.024,-0.0596 0.036,-0.1196 0.0478,-0.1676 0.036,-0.1316 0.0598,-0.2272 0.0598,-0.2272 0.31104,-0.93308 0.20336,-1.83028 -0.17944,-2.57196 z m -42.9696,19.58276 c 1.07663,-1.23216 2.1413,-2.4404 3.19401,-3.61272 -6.89045,9.06764 -18.30275,23.03996 -34.4642,39.644 11.00557,-12.17792 22.09489,-24.79844 31.27019,-36.03128 z m -38.93821,63.174404 -0.0359,-0.036 c 0.13159,0.024 0.22729,0.048 0.23925,0.048 a 0.5622414,0.5622414 0 0 0 -0.20336,0 z m 8.25418,7.67996 -0.0598,-0.048 0.0359,-0.036 c 0.0239,0 0.0359,0.024 0.0479,0.024 0,0.024 -0.0239,0.036 -0.0359,0.0596 z m 10.00072,-8.625 1.65084,-1.722644 c 0.012,0.012 0.024,0.036 0.036,0.06 -0.56224,0.55028 -1.12448,1.112524 -1.69869,1.662804 z m 2.67962,-2.643764 c 0.31104,-0.3588 0.66991,-0.77756 1.04075,-1.22016 0.012,-0.012 0.024,-0.036 0.0478,-0.048 3.93569,-4.05528 7.99101,-8.15848 12.17791,-12.26164 0.024,-0.024 0.0598,-0.048 0.0837,-0.0716 1.02878,-0.78952 2.17719,-1.6628 3.25382,-2.48824 -5.40708,5.16784 -10.89791,10.50316 -16.60406,16.10164 z m 25.899,-66.84692 c -2.22504,2.89496 -4.66541,6.6512 -6.73494,9.65384 -6.53157,9.4624 -27.56179,32.63392 -28.02833,33.07652 -3.24186,3.1342 -13.01529,12.51288 -19.2478,18.38648 -0.16747,0.1556 -0.29906,0.2872 -0.40673,0.41872 a 0.94982912,0.94982912 0 0 1 0.0359,-1.3518 c 29.69114,-27.99244 47.70678,-51.30752 55.02789,-61.46372 -0.15552,0.3948 -0.28712,0.8254 -0.65795,1.30392 z m 19.75022,8.49344 -0.012,0.024 c 0,-0.024 -0.024,-0.0836 0.012,-0.024 z m -1.0886,-6.1368 z m -7.04596,11.30464 c -2.70354,-1.56708 -3.97158,-3.91176 -3.24186,-6.28036 l 0.22728,-0.78952 c 0.0957,-0.2272 0.20336,-0.45456 0.33496,-0.68188 0.7058,-1.17232 1.78243,-2.21308 3.01458,-2.82316 0.0598,-0.024 0.11964,-0.036 0.17944,-0.048 a 0.95102536,0.95102536 0 0 1 -0.0478,-0.5144 c 0.0598,-0.3708 0.29908,-0.69384 0.78953,-0.69384 0.80149,0 3.28971,0.74168 4.23475,1.55516 0.28712,0.2272 0.56224,0.47848 0.81346,0.75364 0.35888,0.41868 0.88523,1.10056 1.1484,1.591 0.15552,0.072 0.27512,0.74168 0.45458,1.0886 0.16748,0.55028 0.23924,1.11252 0.21532,1.67476 0,0.024 0,0.024 0.012,0.036 -0.036,0.0836 0,0.4426 -0.0478,0.47848 -0.11964,0.86132 -0.43065,1.71064 -0.89719,2.45232 -0.0478,0.06 -0.0838,0.1316 -0.1316,0.1912 0,0.012 -0.024,0.024 -0.036,0.048 -0.35888,0.51436 -0.77757,0.99288 -1.29196,1.35176 -1.50728,1.06468 -3.26578,1.38764 -5.02428,0.94504 a 7.5723152,7.5723152 0 0 1 -0.68187,-0.2992 z m 19.46312,-1.94988 c -0.58616,2.45232 -1.30392,5.01232 -2.15326,7.63212 -0.036,0.0956 -0.036,0.1916 -0.036,0.2752 -0.11964,0.012 -0.22728,0.06 -0.323,0.1316 -5.31139,3.8998 -10.44334,7.91924 -15.52743,12.09416 4.39027,-3.97156 8.84035,-7.9192 13.43398,-11.90276 a 7.6668196,7.6668196 0 0 0 2.5241,-4.474 l 0.66991,-4.0314 0.036,-0.1196 c 0.29908,-0.84936 1.60298,-0.47852 1.39962,0.3948 z" />
    <path
       id="path4-7-0"
       d="m 247.99989,7.56743e-5 h 7.99996 V 8.0000378 h -7.99996 z"
       style="clip-rule:evenodd;fill:#00ffff;fill-opacity:0.00392157;fill-rule:evenodd;stroke-width:0.06611541;stroke-linejoin:round;stroke-miterlimit:2"
       inkscape:connector-curvature="0" />
  </g>
</svg>
